<svg width="50" height="50" viewBox="0 0 50 50" fill="none" xmlns="http://www.w3.org/2000/svg">
<path d="M25 0C11.193 0 0 11.193 0 25C0 38.807 11.193 50 25 50C38.807 50 50 38.807 50 25C50 11.193 38.807 0 25 0Z" fill="#2F2E41"/>
<path d="M29.9241 40.3836H26.1429H22.3585C22.3585 40.3836 22.3694 38.1383 22.3585 36.5992C17.1796 37.7148 15.7343 33.7609 15.7343 33.7609C14.789 31.868 13.8413 30.9227 13.8413 30.9227C11.9484 29.7992 13.8413 29.9773 13.8413 29.9773C15.7343 29.9773 16.6796 31.8703 16.6796 31.8703C18.3405 34.6898 21.2952 34.2359 22.3562 33.7633C22.3562 32.818 22.7702 31.3867 23.3015 30.925C19.1687 30.4602 15.7288 28.0867 15.7288 23.3555C15.7288 18.6242 16.6788 17.6789 17.6249 16.7313C17.4343 16.2648 16.6413 14.5398 17.6538 12C17.6538 12 19.5132 12 21.4062 14.8383C22.3437 13.9008 25.1905 13.893 26.1374 13.893C27.0812 13.893 29.9296 13.9008 30.8671 14.8383C32.7601 12 34.6241 12 34.6241 12C35.6366 14.5398 34.8444 16.2648 34.653 16.7313C35.5984 17.6766 36.546 18.6242 36.546 23.3555C36.546 28.0867 33.1109 30.4586 28.9765 30.925C29.5093 31.3867 29.9218 33.0148 29.9218 33.7633L29.9241 40.3836Z" fill="white"/>
</svg>
