<svg width="818" height="514" viewBox="0 0 818 514" fill="none" xmlns="http://www.w3.org/2000/svg">
<g clip-path="url(#clip0)" filter="url(#filter0_d)">
<path d="M517.683 160.809C519.218 144.277 523.459 128.109 530.235 112.951C532.124 108.733 534.203 104.607 536.472 100.575C536.585 100.364 536.613 100.117 536.548 99.8862C536.483 99.6555 536.332 99.4589 536.125 99.338C535.918 99.217 535.672 99.1812 535.439 99.238C535.206 99.2948 535.004 99.4398 534.877 99.6425C526.626 114.33 520.845 130.274 517.767 146.836C516.91 151.461 516.267 156.119 515.836 160.809C515.726 161.992 517.574 161.984 517.683 160.809Z" fill="#FF6584"/>
<path d="M540.946 103.537C547.407 103.537 552.646 98.2996 552.646 91.8393C552.646 85.379 547.407 80.1418 540.946 80.1418C534.484 80.1418 529.246 85.379 529.246 91.8393C529.246 98.2996 534.484 103.537 540.946 103.537Z" fill="#FF6584"/>
<path d="M518.88 161.119C519.876 150.394 522.627 139.905 527.023 130.072C528.248 127.335 529.597 124.659 531.069 122.043C531.143 121.906 531.16 121.746 531.118 121.596C531.076 121.446 530.978 121.319 530.844 121.24C530.709 121.162 530.55 121.139 530.399 121.176C530.248 121.212 530.117 121.306 530.034 121.438C524.681 130.966 520.931 141.31 518.934 152.054C518.378 155.055 517.961 158.076 517.681 161.119C517.61 161.887 518.809 161.882 518.88 161.119Z" fill="#FF6584"/>
<path d="M533.971 123.964C538.163 123.964 541.562 120.567 541.562 116.376C541.562 112.185 538.163 108.787 533.971 108.787C529.78 108.787 526.381 112.185 526.381 116.376C526.381 120.567 529.78 123.964 533.971 123.964Z" fill="#FF6584"/>
<path d="M517.367 160.403C511.554 151.334 507.271 141.372 504.688 130.915C503.97 128.004 503.387 125.064 502.939 122.096C502.913 121.943 502.828 121.806 502.703 121.714C502.578 121.621 502.422 121.581 502.267 121.602C502.113 121.623 501.973 121.702 501.877 121.824C501.78 121.946 501.735 122.101 501.751 122.256C503.392 133.061 506.798 143.522 511.833 153.222C513.241 155.93 514.77 158.569 516.422 161.14C516.838 161.789 517.78 161.048 517.367 160.403Z" fill="#FF6584"/>
<path d="M501.741 123.432C505.933 123.432 509.331 120.034 509.331 115.843C509.331 111.652 505.933 108.254 501.741 108.254C497.549 108.254 494.151 111.652 494.151 115.843C494.151 120.034 497.549 123.432 501.741 123.432Z" fill="#2F2E41"/>
<path d="M494.066 167.117V152.207C494.068 150.725 494.657 149.304 495.706 148.255C496.754 147.207 498.176 146.618 499.658 146.616H534.455C535.938 146.618 537.359 147.207 538.408 148.255C539.456 149.304 540.046 150.725 540.048 152.207V167.117C540.046 168.6 539.456 170.021 538.408 171.069C537.359 172.117 535.938 172.707 534.455 172.709H499.658C498.176 172.707 496.754 172.117 495.706 171.069C494.657 170.021 494.068 168.6 494.066 167.117Z" fill="#2F2E41"/>
<path d="M533.212 72.0655H518.299C516.817 72.0638 515.395 71.4742 514.347 70.426C513.298 69.3778 512.709 67.9566 512.707 66.4742V5.59129C512.709 4.1089 513.298 2.68772 514.347 1.63951C515.395 0.591305 516.817 0.00167062 518.299 0H533.212C534.695 0.00167062 536.117 0.591305 537.165 1.63951C538.213 2.68772 538.803 4.1089 538.805 5.59129V66.4742C538.803 67.9566 538.213 69.3778 537.165 70.426C536.117 71.4742 534.695 72.0638 533.212 72.0655Z" fill="#2F2E41"/>
<path d="M538.183 11.8037H513.328V16.7737H538.183V11.8037Z" fill="#575A89"/>
<path d="M538.183 50.3215H513.328V55.2916H538.183V50.3215Z" fill="#575A89"/>
<path d="M570.495 72.0655H555.582C554.099 72.0638 552.677 71.4742 551.629 70.426C550.581 69.3778 549.991 67.9566 549.989 66.4742V5.59129C549.991 4.1089 550.581 2.68772 551.629 1.63951C552.677 0.591305 554.099 0.00167062 555.582 0H570.495C571.977 0.00167062 573.399 0.591305 574.447 1.63951C575.495 2.68772 576.085 4.1089 576.087 5.59129V66.4742C576.085 67.9566 575.495 69.3778 574.447 70.426C573.399 71.4742 571.977 72.0638 570.495 72.0655Z" fill="#2F2E41"/>
<path d="M575.466 11.8037H550.611V16.7737H575.466V11.8037Z" fill="#575A89"/>
<path d="M575.466 50.3215H550.611V55.2916H575.466V50.3215Z" fill="#575A89"/>
<path d="M607.777 72.0655H592.864C591.382 72.0638 589.96 71.4742 588.912 70.426C587.863 69.3778 587.274 67.9566 587.272 66.4742V5.59129C587.274 4.1089 587.863 2.68772 588.912 1.63951C589.96 0.591305 591.382 0.00167062 592.864 0H607.777C609.26 0.00167062 610.682 0.591305 611.73 1.63951C612.778 2.68772 613.368 4.1089 613.37 5.59129V66.4742C613.368 67.9566 612.778 69.3778 611.73 70.426C610.682 71.4742 609.26 72.0638 607.777 72.0655Z" fill="#2F2E41"/>
<path d="M612.748 11.8037H587.893V16.7737H612.748V11.8037Z" fill="#575A89"/>
<path d="M612.748 50.3215H587.893V55.2916H612.748V50.3215Z" fill="#575A89"/>
<path d="M627.661 172.709H612.748C611.265 172.707 609.844 172.117 608.796 171.069C607.747 170.021 607.157 168.6 607.156 167.117V106.234C607.157 104.752 607.747 103.331 608.796 102.283C609.844 101.234 611.265 100.645 612.748 100.643H627.661C629.144 100.645 630.565 101.234 631.614 102.283C632.662 103.331 633.252 104.752 633.253 106.234V167.117C633.252 168.6 632.662 170.021 631.614 171.069C630.565 172.117 629.144 172.707 627.661 172.709Z" fill="#2F2E41"/>
<path d="M632.632 112.447H607.777V117.417H632.632V112.447Z" fill="#575A89"/>
<path d="M632.632 150.965H607.777V155.935H632.632V150.965Z" fill="#575A89"/>
<path d="M664.944 172.709H650.031C648.548 172.707 647.127 172.117 646.078 171.069C645.03 170.021 644.44 168.6 644.438 167.117V106.234C644.44 104.752 645.03 103.331 646.078 102.283C647.127 101.234 648.548 100.645 650.031 100.643H664.944C666.427 100.645 667.848 101.234 668.896 102.283C669.945 103.331 670.535 104.752 670.536 106.234V167.117C670.535 168.6 669.945 170.021 668.896 171.069C667.848 172.117 666.427 172.707 664.944 172.709Z" fill="#2F2E41"/>
<path d="M669.914 112.447H645.06V117.417H669.914V112.447Z" fill="#575A89"/>
<path d="M669.914 150.965H645.06V155.935H669.914V150.965Z" fill="#575A89"/>
<path d="M702.226 172.709H687.313C685.83 172.707 684.409 172.117 683.36 171.069C682.312 170.021 681.722 168.6 681.721 167.117V106.234C681.722 104.752 682.312 103.331 683.36 102.283C684.409 101.234 685.83 100.645 687.313 100.643H702.226C703.709 100.645 705.13 101.234 706.179 102.283C707.227 103.331 707.817 104.752 707.818 106.234V167.117C707.817 168.6 707.227 170.021 706.179 171.069C705.13 172.117 703.709 172.707 702.226 172.709Z" fill="#2F2E41"/>
<path d="M707.197 112.447H682.342V117.417H707.197V112.447Z" fill="#575A89"/>
<path d="M707.197 150.965H682.342V155.935H707.197V150.965Z" fill="#575A89"/>
<path d="M529.484 273.352H514.571C513.088 273.35 511.667 272.761 510.618 271.712C509.57 270.664 508.98 269.243 508.979 267.761V206.878C508.98 205.395 509.57 203.974 510.618 202.926C511.667 201.878 513.088 201.288 514.571 201.286H529.484C530.966 201.288 532.388 201.878 533.436 202.926C534.485 203.974 535.075 205.395 535.076 206.878V267.761C535.075 269.243 534.485 270.664 533.436 271.712C532.388 272.761 530.966 273.35 529.484 273.352Z" fill="#2F2E41"/>
<path d="M534.455 213.09H509.6V218.06H534.455V213.09Z" fill="#575A89"/>
<path d="M534.455 251.608H509.6V256.578H534.455V251.608Z" fill="#575A89"/>
<path d="M566.767 273.352H551.854C550.371 273.35 548.949 272.761 547.901 271.712C546.853 270.664 546.263 269.243 546.261 267.761V206.878C546.263 205.395 546.853 203.974 547.901 202.926C548.949 201.878 550.371 201.288 551.854 201.286H566.767C568.249 201.288 569.671 201.878 570.719 202.926C571.768 203.974 572.357 205.395 572.359 206.878V267.761C572.357 269.243 571.768 270.664 570.719 271.712C569.671 272.761 568.249 273.35 566.767 273.352Z" fill="#2F2E41"/>
<path d="M571.738 213.09H546.883V218.06H571.738V213.09Z" fill="#575A89"/>
<path d="M571.738 251.608H546.883V256.578H571.738V251.608Z" fill="#575A89"/>
<path d="M604.049 273.352H589.136C587.653 273.35 586.232 272.761 585.183 271.712C584.135 270.664 583.545 269.243 583.543 267.761V206.878C583.545 205.395 584.135 203.974 585.183 202.926C586.232 201.878 587.653 201.288 589.136 201.286H604.049C605.531 201.288 606.953 201.878 608.001 202.926C609.05 203.974 609.64 205.395 609.641 206.878V267.761C609.64 269.243 609.05 270.664 608.001 271.712C606.953 272.761 605.531 273.35 604.049 273.352Z" fill="#2F2E41"/>
<path d="M609.02 213.09H584.165V218.06H609.02V213.09Z" fill="#575A89"/>
<path d="M609.02 251.608H584.165V256.578H609.02V251.608Z" fill="#575A89"/>
<path d="M645.059 72.0655H630.147C628.664 72.0638 627.242 71.4742 626.194 70.426C625.146 69.3778 624.556 67.9566 624.554 66.4742V5.59129C624.556 4.1089 625.146 2.68772 626.194 1.63951C627.242 0.591305 628.664 0.00167062 630.147 0H645.059C646.542 0.00167062 647.964 0.591305 649.012 1.63951C650.06 2.68772 650.65 4.1089 650.652 5.59129V66.4742C650.65 67.9566 650.06 69.3778 649.012 70.426C647.964 71.4742 646.542 72.0638 645.059 72.0655Z" fill="#2F2E41"/>
<path d="M650.031 11.8037H625.176V16.7737H650.031V11.8037Z" fill="#575A89"/>
<path d="M650.031 50.3215H625.176V55.2916H650.031V50.3215Z" fill="#575A89"/>
<path d="M682.342 72.0655H667.429C665.947 72.0638 664.525 71.4742 663.477 70.426C662.428 69.3778 661.839 67.9566 661.837 66.4742V5.59129C661.839 4.1089 662.428 2.68772 663.477 1.63951C664.525 0.591305 665.947 0.00167062 667.429 0H682.342C683.825 0.00167062 685.246 0.591305 686.295 1.63951C687.343 2.68772 687.933 4.1089 687.935 5.59129V66.4742C687.933 67.9566 687.343 69.3778 686.295 70.426C685.246 71.4742 683.825 72.0638 682.342 72.0655Z" fill="#2F2E41"/>
<path d="M687.313 11.8037H662.458V16.7737H687.313V11.8037Z" fill="#575A89"/>
<path d="M687.313 50.3215H662.458V55.2916H687.313V50.3215Z" fill="#575A89"/>
<path d="M719.624 72.0655H704.711C703.229 72.0638 701.807 71.4742 700.759 70.426C699.71 69.3778 699.121 67.9566 699.119 66.4742V5.59129C699.121 4.1089 699.71 2.68772 700.759 1.63951C701.807 0.591305 703.229 0.00167062 704.711 0H719.624C721.107 0.00167062 722.529 0.591305 723.577 1.63951C724.625 2.68772 725.215 4.1089 725.217 5.59129V66.4742C725.215 67.9566 724.625 69.3778 723.577 70.426C722.529 71.4742 721.107 72.0638 719.624 72.0655Z" fill="#2F2E41"/>
<path d="M724.596 11.8037H699.741V16.7737H724.596V11.8037Z" fill="#575A89"/>
<path d="M724.596 50.3215H699.741V55.2916H724.596V50.3215Z" fill="#575A89"/>
<path d="M756.907 72.0655H741.994C740.512 72.0638 739.09 71.4742 738.042 70.426C736.993 69.3778 736.404 67.9566 736.402 66.4742V5.59129C736.404 4.1089 736.993 2.68772 738.042 1.63951C739.09 0.591305 740.512 0.00167062 741.994 0H756.907C758.39 0.00167062 759.811 0.591305 760.86 1.63951C761.908 2.68772 762.498 4.1089 762.5 5.59129V66.4742C762.498 67.9566 761.908 69.3778 760.86 70.426C759.811 71.4742 758.39 72.0638 756.907 72.0655Z" fill="#2F2E41"/>
<path d="M761.878 11.8037H737.023V16.7737H761.878V11.8037Z" fill="#575A89"/>
<path d="M761.878 50.3215H737.023V55.2916H761.878V50.3215Z" fill="#575A89"/>
<path d="M812.757 73.9291H458.574C458.244 73.9291 457.928 73.7982 457.695 73.5652C457.462 73.3322 457.331 73.0161 457.331 72.6866C457.331 72.3571 457.462 72.041 457.695 71.808C457.928 71.575 458.244 71.4441 458.574 71.4441H812.757C813.087 71.4441 813.403 71.575 813.636 71.808C813.869 72.041 814 72.3571 814 72.6866C814 73.0161 813.869 73.3322 813.636 73.5652C813.403 73.7982 813.087 73.9291 812.757 73.9291Z" fill="#575A89"/>
<path d="M812.757 174.572H458.574C458.244 174.572 457.928 174.441 457.695 174.208C457.462 173.975 457.331 173.659 457.331 173.33C457.331 173 457.462 172.684 457.695 172.451C457.928 172.218 458.244 172.087 458.574 172.087H812.757C813.087 172.087 813.403 172.218 813.636 172.451C813.869 172.684 814 173 814 173.33C814 173.659 813.869 173.975 813.636 174.208C813.403 174.441 813.087 174.572 812.757 174.572Z" fill="#575A89"/>
<path d="M812.757 275.216H458.574C458.244 275.216 457.928 275.085 457.695 274.852C457.462 274.619 457.331 274.303 457.331 273.973C457.331 273.643 457.462 273.327 457.695 273.094C457.928 272.861 458.244 272.73 458.574 272.73H812.757C813.087 272.73 813.403 272.861 813.636 273.094C813.869 273.327 814 273.643 814 273.973C814 274.303 813.869 274.619 813.636 274.852C813.403 275.085 813.087 275.216 812.757 275.216Z" fill="#575A89"/>
<path d="M722.736 261.452C724.272 244.92 728.512 228.752 735.289 213.594C737.177 209.376 739.256 205.25 741.525 201.218C741.639 201.007 741.666 200.76 741.601 200.529C741.537 200.299 741.385 200.102 741.178 199.981C740.971 199.86 740.725 199.824 740.492 199.881C740.259 199.938 740.058 200.083 739.93 200.286C731.679 214.973 725.899 230.917 722.82 247.479C721.964 252.104 721.32 256.762 720.889 261.452C720.779 262.635 722.627 262.628 722.736 261.452Z" fill="#FF6584"/>
<path d="M745.999 204.18C752.461 204.18 757.699 198.943 757.699 192.482C757.699 186.022 752.461 180.785 745.999 180.785C739.537 180.785 734.299 186.022 734.299 192.482C734.299 198.943 739.537 204.18 745.999 204.18Z" fill="#FF6584"/>
<path d="M723.933 261.763C724.929 251.037 727.68 240.549 732.076 230.715C733.301 227.978 734.65 225.302 736.122 222.686C736.196 222.549 736.214 222.389 736.172 222.239C736.13 222.09 736.031 221.962 735.897 221.884C735.763 221.805 735.603 221.782 735.452 221.819C735.301 221.856 735.17 221.95 735.087 222.081C729.734 231.61 725.984 241.953 723.987 252.698C723.432 255.698 723.014 258.72 722.734 261.763C722.663 262.53 723.862 262.525 723.933 261.763Z" fill="#FF6584"/>
<path d="M739.025 224.608C743.217 224.608 746.615 221.21 746.615 217.019C746.615 212.828 743.217 209.43 739.025 209.43C734.833 209.43 731.435 212.828 731.435 217.019C731.435 221.21 734.833 224.608 739.025 224.608Z" fill="#2F2E41"/>
<path d="M722.421 261.046C716.608 251.977 712.325 242.015 709.742 231.558C709.024 228.647 708.441 225.707 707.992 222.739C707.966 222.586 707.882 222.449 707.757 222.357C707.631 222.264 707.475 222.224 707.321 222.245C707.167 222.266 707.027 222.346 706.931 222.468C706.834 222.589 706.789 222.744 706.804 222.899C708.445 233.704 711.852 244.165 716.887 253.865C718.295 256.573 719.824 259.212 721.476 261.783C721.892 262.432 722.834 261.691 722.421 261.046Z" fill="#FF6584"/>
<path d="M706.794 224.075C710.986 224.075 714.384 220.677 714.384 216.486C714.384 212.295 710.986 208.897 706.794 208.897C702.602 208.897 699.204 212.295 699.204 216.486C699.204 220.677 702.602 224.075 706.794 224.075Z" fill="#2F2E41"/>
<path d="M699.119 267.76V252.85C699.121 251.368 699.71 249.947 700.759 248.899C701.807 247.85 703.229 247.261 704.712 247.259H739.508C740.991 247.261 742.413 247.85 743.461 248.899C744.509 249.947 745.099 251.368 745.101 252.85V267.76C745.099 269.243 744.509 270.664 743.461 271.712C742.413 272.76 740.991 273.35 739.508 273.352H704.712C703.229 273.35 701.807 272.76 700.759 271.712C699.71 270.664 699.121 269.243 699.119 267.76Z" fill="#2F2E41"/>
<path d="M562.73 441.864H89.2427C88.9132 441.864 88.5971 441.733 88.364 441.5C88.131 441.267 88 440.951 88 440.621C88 440.292 88.131 439.976 88.364 439.743C88.5971 439.51 88.9132 439.379 89.2427 439.379H562.73C563.059 439.379 563.375 439.51 563.609 439.743C563.842 439.976 563.973 440.292 563.973 440.621C563.973 440.951 563.842 441.267 563.609 441.5C563.375 441.733 563.059 441.864 562.73 441.864Z" fill="#3F3D56"/>
<path d="M335.38 279.095C353.912 279.095 368.935 264.076 368.935 245.548C368.935 227.02 353.912 212 335.38 212C316.849 212 301.826 227.02 301.826 245.548C301.826 264.076 316.849 279.095 335.38 279.095Z" fill="#2F2E41"/>
<path d="M303.499 460.907L302.61 445.701L360.853 435.034L362.165 457.479L303.499 460.907Z" fill="#FFB8B8"/>
<path d="M306.32 434.584L308.035 463.912L289.566 464.991L286.772 417.198C289.197 417.056 291.627 417.394 293.922 418.191C296.217 418.988 298.332 420.229 300.147 421.843C301.963 423.458 303.442 425.414 304.501 427.6C305.56 429.786 306.179 432.159 306.32 434.584Z" fill="#2F2E41"/>
<path d="M328.831 460.768L319.156 472.535L269.153 440.828L283.431 423.46L328.831 460.768Z" fill="#FFB8B8"/>
<path d="M308.883 478.178L327.541 455.482L341.833 467.227L311.428 504.212C309.551 502.67 307.997 500.773 306.853 498.63C305.709 496.487 304.999 494.14 304.763 491.722C304.526 489.304 304.769 486.864 305.476 484.54C306.183 482.216 307.34 480.054 308.883 478.178Z" fill="#2F2E41"/>
<path d="M300.99 406.042L294.379 437.203C294.227 437.921 294.235 438.663 294.404 439.377C294.573 440.091 294.897 440.758 295.354 441.332C295.812 441.905 296.39 442.371 297.048 442.694C297.707 443.018 298.428 443.192 299.162 443.204L364.155 444.252C364.887 444.264 365.614 444.114 366.281 443.812C366.949 443.51 367.542 443.065 368.017 442.508C368.493 441.95 368.839 441.295 369.032 440.588C369.224 439.881 369.258 439.14 369.13 438.419L363.445 406.21C363.242 405.06 362.64 404.017 361.745 403.266C360.85 402.515 359.719 402.104 358.55 402.104H305.853C304.714 402.104 303.609 402.495 302.724 403.212C301.839 403.929 301.227 404.928 300.99 406.042Z" fill="#2F2E41"/>
<path d="M311.768 417.014C311.768 417.014 248.388 377.254 235.961 398.376C229.747 408.937 232.854 419.188 237.514 426.799C241.839 433.728 248.047 439.283 255.413 442.816L306.797 467.957L325.439 448.076L313.011 436.894L311.768 417.014Z" fill="#2F2E41"/>
<path d="M344.08 410.801C344.08 410.801 426.101 387.194 409.945 431.924C393.79 476.654 332.895 459.259 332.895 459.259L326.681 440.621L347.808 425.711L344.08 410.801Z" fill="#2F2E41"/>
<path d="M335.801 283.725C352.658 283.725 366.324 270.062 366.324 253.208C366.324 236.354 352.658 222.691 335.801 222.691C318.944 222.691 305.278 236.354 305.278 253.208C305.278 270.062 318.944 283.725 335.801 283.725Z" fill="#FFB8B8"/>
<path d="M337.4 415.733C324.717 415.541 312.099 413.879 299.798 410.78L299.435 410.68L282.402 332.346C280.87 325.463 281.912 318.257 285.331 312.089C288.75 305.921 294.31 301.218 300.96 298.869C321.502 291.5 343.892 291.053 364.712 297.596H364.713C371.699 299.847 377.579 304.648 381.181 311.043C384.782 317.437 385.84 324.954 384.143 332.094L365.119 410.614L364.851 410.742C356.945 414.486 347.058 415.733 337.4 415.733Z" fill="#575A89"/>
<path d="M314.521 421.818C315.14 420.099 316.128 418.537 317.416 417.241C318.703 415.945 320.26 414.948 321.975 414.318C323.69 413.689 325.522 413.443 327.342 413.599C329.163 413.754 330.927 414.306 332.511 415.217L366.048 386.112L369.082 408.985L336.769 433.117C335.063 435.675 332.477 437.519 329.502 438.299C326.526 439.079 323.368 438.74 320.626 437.347C317.883 435.954 315.747 433.604 314.622 430.742C313.497 427.88 313.461 424.704 314.521 421.818Z" fill="#FFB8B8"/>
<path d="M346.507 428.166C345.961 428.165 345.418 428.086 344.896 427.929C344.047 427.682 343.27 427.236 342.63 426.627C341.989 426.018 341.504 425.265 341.214 424.43L337.166 412.963C336.787 411.904 336.739 410.754 337.028 409.666C337.317 408.579 337.93 407.604 338.785 406.872L384.479 379.445L366.466 299.103L366.925 298.992C367.111 298.946 385.566 294.747 393.129 314.91C398.425 329.031 418.023 359.736 416.64 380.485C416.378 384.635 414.723 388.576 411.945 391.671C409.166 394.765 405.426 396.834 401.327 397.541L349.892 427.005C348.923 427.756 347.733 428.164 346.507 428.166Z" fill="#575A89"/>
<path d="M351.632 419.092C351.013 417.373 350.025 415.811 348.738 414.515C347.45 413.22 345.894 412.222 344.178 411.593C342.463 410.964 340.631 410.718 338.811 410.873C336.99 411.029 335.226 411.581 333.643 412.492L300.105 383.386L297.071 406.259L329.384 430.391C331.09 432.95 333.676 434.794 336.652 435.573C339.627 436.353 342.785 436.014 345.527 434.622C348.27 433.229 350.406 430.879 351.531 428.017C352.656 425.154 352.692 421.979 351.632 419.092Z" fill="#FFB8B8"/>
<path d="M323.011 428.166C321.785 428.164 320.595 427.756 319.626 427.005L264.462 400.026C260.364 399.319 256.623 397.25 253.845 394.156C251.066 391.061 249.412 387.12 249.149 382.97C247.767 362.221 271.093 329.031 276.389 314.91C283.951 294.747 302.407 298.945 302.593 298.993L303.051 299.103L281.311 381.93L330.733 406.872C331.588 407.604 332.201 408.579 332.49 409.666C332.779 410.754 332.73 411.904 332.352 412.963L328.303 424.43C328.014 425.265 327.529 426.018 326.888 426.627C326.248 427.236 325.471 427.682 324.622 427.929C324.099 428.086 323.557 428.166 323.011 428.166Z" fill="#575A89"/>
<path d="M388.818 440.621H278.214C275.908 440.619 273.696 439.701 272.066 438.071C270.435 436.44 269.517 434.23 269.515 431.924V371.041C269.517 368.735 270.435 366.524 272.066 364.894C273.696 363.263 275.908 362.346 278.214 362.343H388.818C391.125 362.346 393.336 363.263 394.967 364.894C396.598 366.524 397.515 368.735 397.518 371.041V431.924C397.515 434.23 396.598 436.44 394.967 438.071C393.336 439.701 391.125 440.619 388.818 440.621Z" fill="#2F2E41"/>
<path d="M333.516 408.937C337.634 408.937 340.973 405.6 340.973 401.482C340.973 397.365 337.634 394.027 333.516 394.027C329.398 394.027 326.06 397.365 326.06 401.482C326.06 405.6 329.398 408.937 333.516 408.937Z" fill="white"/>
<path d="M304.972 251.966C303.163 247.379 306.131 241.911 310.534 239.689C314.937 237.467 320.251 237.889 324.96 239.354C328.918 240.585 332.628 242.492 336.489 243.999C340.296 245.686 344.455 246.426 348.61 246.157C352.728 245.692 356.828 243.383 358.513 239.597C360.26 235.672 359.072 230.883 356.382 227.534C353.519 224.295 349.814 221.915 345.679 220.656C336.598 217.458 326.108 217.364 317.677 222.014C309.247 226.664 303.517 236.564 305.26 246.032" fill="#2F2E41"/>
<path d="M40.5913 437.137C42.1266 420.605 46.3672 404.437 53.1437 389.279C55.0323 385.061 57.1111 380.935 59.3799 376.903C59.4937 376.692 59.5212 376.445 59.4564 376.214C59.3917 375.984 59.2398 375.787 59.0329 375.666C58.826 375.545 58.5801 375.509 58.3473 375.566C58.1144 375.623 57.9128 375.768 57.7848 375.971C49.5339 390.658 43.7535 406.602 40.6749 423.164C39.8185 427.789 39.1749 432.447 38.7439 437.137C38.6344 438.32 40.4825 438.313 40.5913 437.137Z" fill="#FF6584"/>
<path d="M63.854 379.865C70.3156 379.865 75.5538 374.628 75.5538 368.168C75.5538 361.707 70.3156 356.47 63.854 356.47C57.3924 356.47 52.1543 361.707 52.1543 368.168C52.1543 374.628 57.3924 379.865 63.854 379.865Z" fill="#2F2E41"/>
<path d="M41.7879 437.448C42.7839 426.723 45.535 416.234 49.9312 406.4C51.1565 403.663 52.505 400.987 53.977 398.371C54.0508 398.234 54.0685 398.074 54.0265 397.924C53.9845 397.775 53.886 397.647 53.7518 397.569C53.6175 397.49 53.4581 397.467 53.307 397.504C53.156 397.541 53.0252 397.635 52.9422 397.766C47.5894 407.295 43.8394 417.638 41.8421 428.383C41.2866 431.383 40.869 434.405 40.5895 437.448C40.5184 438.215 41.7173 438.21 41.7879 437.448H41.7879Z" fill="#FF6584"/>
<path d="M56.8797 400.293C61.0716 400.293 64.4699 396.895 64.4699 392.704C64.4699 388.513 61.0716 385.115 56.8797 385.115C52.6878 385.115 49.2896 388.513 49.2896 392.704C49.2896 396.895 52.6878 400.293 56.8797 400.293Z" fill="#FF6584"/>
<path d="M40.2756 436.732C34.463 427.662 30.1797 417.7 27.5965 407.243C26.8791 404.332 26.296 401.393 25.8472 398.425C25.8213 398.271 25.7368 398.134 25.6116 398.042C25.4864 397.95 25.3302 397.91 25.1761 397.93C25.022 397.951 24.8819 398.031 24.7855 398.153C24.6891 398.275 24.6438 398.429 24.6592 398.584C26.3004 409.389 29.7066 419.85 34.7417 429.551C36.1495 432.258 37.6791 434.897 39.3306 437.468C39.7467 438.117 40.6891 437.376 40.2756 436.732Z" fill="#FF6584"/>
<path d="M24.6497 399.76C28.8417 399.76 32.2399 396.362 32.2399 392.171C32.2399 387.98 28.8417 384.583 24.6497 384.583C20.4578 384.583 17.0596 387.98 17.0596 392.171C17.0596 396.362 20.4578 399.76 24.6497 399.76Z" fill="#2F2E41"/>
<path d="M16.9741 443.446V428.536C16.9758 427.053 17.5655 425.632 18.614 424.584C19.6624 423.536 21.0838 422.946 22.5665 422.944H57.3634C58.8461 422.946 60.2676 423.536 61.316 424.584C62.3644 425.632 62.9541 427.053 62.9558 428.536V443.446C62.9541 444.928 62.3644 446.349 61.316 447.397C60.2676 448.446 58.8461 449.035 57.3634 449.037H22.5665C21.0838 449.035 19.6624 448.446 18.614 447.397C17.5655 446.349 16.9758 444.928 16.9741 443.446Z" fill="#2F2E41"/>
<path d="M478.731 451.059C478.731 459.231 472.105 462.946 463.932 462.946C455.758 462.946 449.132 459.231 449.132 451.059C449.132 442.887 452.421 433.352 463.932 436.64C475.442 431.708 478.731 442.887 478.731 451.059Z" fill="#FF6584"/>
<path d="M463.21 440.468C462.635 440.469 462.079 440.261 461.646 439.881C461.214 439.502 460.934 438.977 460.86 438.407C460.37 434.33 457.669 426.345 456.531 423.101L456.531 423.1C456.415 422.778 456.38 422.432 456.428 422.093C456.476 421.754 456.605 421.432 456.804 421.154C456.995 420.905 457.237 420.7 457.513 420.551C457.789 420.402 458.093 420.314 458.406 420.291C458.718 420.269 459.032 420.312 459.327 420.42C459.621 420.527 459.89 420.696 460.114 420.915C460.315 421.125 460.47 421.374 460.57 421.647C460.67 421.92 460.713 422.21 460.696 422.501C460.473 426.664 463.508 433.391 465.338 437.031C465.51 437.374 465.597 437.754 465.59 438.138C465.584 438.522 465.484 438.899 465.299 439.236C465.115 439.573 464.851 439.86 464.531 440.072C464.211 440.284 463.844 440.416 463.461 440.455C463.378 440.464 463.294 440.469 463.21 440.468Z" fill="#3F3D56"/>
<path d="M474.162 431.284C479.299 427.081 475.268 418.477 468.838 420.129C467.973 420.335 467.176 420.761 466.522 421.364C462.578 425.089 461.967 434.62 461.967 434.62C461.967 434.62 468.932 435.564 474.162 431.284Z" fill="#3F3D56"/>
<path d="M205.38 209C198.856 208.982 192.509 206.888 187.261 203.022C182.012 199.155 178.137 193.718 176.198 187.501C155.497 195.403 132.649 195.664 111.772 188.239C90.8947 180.813 73.3614 166.188 62.332 147C51.3025 127.812 47.5022 105.322 51.616 83.5845C55.7299 61.8468 67.4873 42.2907 84.7692 28.4407C102.051 14.5906 123.721 7.35746 145.873 8.04485C168.026 8.73224 189.204 17.2949 205.59 32.1897C221.977 47.0845 232.495 67.3318 235.248 89.2825C238.001 111.233 232.809 133.444 220.606 151.911C226.462 155.262 231.044 160.449 233.641 166.667C236.239 172.885 236.706 179.785 234.969 186.295C233.233 192.805 229.391 198.561 224.04 202.666C218.689 206.772 212.129 208.999 205.38 209V209ZM177.225 185.428L177.458 186.258C179.538 193.661 184.478 199.935 191.191 203.702C197.905 207.469 205.843 208.421 213.26 206.347C220.676 204.273 226.964 199.343 230.739 192.643C234.515 185.942 235.47 178.019 233.394 170.616C232.33 166.853 230.517 163.343 228.065 160.294C225.612 157.245 222.57 154.72 219.119 152.87L218.357 152.463L218.839 151.748C231.043 133.641 236.342 111.769 233.775 90.0975C231.208 68.4259 220.945 48.39 204.847 33.6232C188.75 18.8565 167.884 10.3367 146.033 9.60881C124.182 8.88095 102.793 15.9933 85.7456 29.6559C68.6977 43.3186 57.1195 62.627 53.1107 84.0796C49.1019 105.532 52.9279 127.708 63.8948 146.587C74.8618 165.465 92.2436 179.796 112.888 186.98C133.533 194.163 156.073 193.725 176.421 185.743L177.225 185.428Z" fill="#3F3D56"/>
<path d="M193.3 91H92.7C92.0828 91 91.4716 90.8836 90.9014 90.6575C90.3312 90.4313 89.813 90.0998 89.3766 89.682C88.9402 89.2641 88.594 88.7681 88.3578 88.2221C88.1216 87.6761 88 87.0909 88 86.5C88 85.9091 88.1216 85.3239 88.3578 84.7779C88.594 84.2319 88.9402 83.7359 89.3766 83.318C89.813 82.9002 90.3312 82.5687 90.9014 82.3425C91.4716 82.1164 92.0828 82 92.7 82H193.3C193.917 82 194.528 82.1164 195.099 82.3425C195.669 82.5687 196.187 82.9002 196.623 83.318C197.06 83.7359 197.406 84.2319 197.642 84.7779C197.878 85.3239 198 85.9091 198 86.5C198 87.0909 197.878 87.6761 197.642 88.2221C197.406 88.7681 197.06 89.2641 196.623 89.682C196.187 90.0998 195.669 90.4313 195.099 90.6575C194.528 90.8836 193.917 91 193.3 91Z" fill="#2F2E41"/>
<path d="M193.3 106H92.7C92.0828 106 91.4716 105.871 90.9014 105.619C90.3312 105.368 89.813 105 89.3766 104.536C88.9402 104.071 88.594 103.52 88.3578 102.913C88.1216 102.307 88 101.657 88 101C88 100.343 88.1216 99.6932 88.3578 99.0866C88.594 98.48 88.9402 97.9288 89.3766 97.4645C89.813 97.0002 90.3312 96.6319 90.9014 96.3806C91.4716 96.1293 92.0828 96 92.7 96H193.3C193.917 96 194.528 96.1293 195.099 96.3806C195.669 96.6319 196.187 97.0002 196.623 97.4645C197.06 97.9288 197.406 98.48 197.642 99.0866C197.878 99.6932 198 100.343 198 101C198 101.657 197.878 102.307 197.642 102.913C197.406 103.52 197.06 104.071 196.623 104.536C196.187 105 195.669 105.368 195.099 105.619C194.528 105.871 193.917 106 193.3 106H193.3Z" fill="#575A89"/>
<path d="M193.3 120H92.6944C91.4488 119.998 90.2548 119.524 89.3746 118.68C88.4944 117.836 88 116.692 88 115.5C88 114.308 88.4944 113.164 89.3746 112.32C90.2548 111.476 91.4488 111.002 92.6944 111H193.3C194.546 111 195.742 111.474 196.623 112.318C197.505 113.162 198 114.307 198 115.5C198 116.693 197.505 117.838 196.623 118.682C195.742 119.526 194.546 120 193.3 120H193.3Z" fill="#2F2E41"/>
<path d="M148.263 218H122.555C122.019 218.001 121.489 217.882 121.006 217.652C120.523 217.422 120.099 217.087 119.766 216.672C119.437 216.268 119.206 215.797 119.088 215.292C118.971 214.787 118.971 214.263 119.088 213.758C121.401 203.714 121.401 193.286 119.088 183.242C118.971 182.737 118.971 182.213 119.088 181.708C119.206 181.204 119.437 180.732 119.766 180.328C120.099 179.913 120.523 179.578 121.006 179.348C121.489 179.118 122.019 178.999 122.555 179H148.263C149.117 178.998 149.942 179.301 150.586 179.854C151.23 180.406 151.65 181.17 151.768 182.005C153.411 192.942 153.411 204.058 151.768 214.995C151.65 215.83 151.23 216.594 150.586 217.146C149.942 217.699 149.117 218.002 148.263 218Z" fill="#575A89"/>
</g>
<defs>
<filter id="filter0_d" x="-4" y="0" width="822" height="522" filterUnits="userSpaceOnUse" color-interpolation-filters="sRGB">
<feFlood flood-opacity="0" result="BackgroundImageFix"/>
<feColorMatrix in="SourceAlpha" type="matrix" values="0 0 0 0 0 0 0 0 0 0 0 0 0 0 0 0 0 0 127 0"/>
<feOffset dy="4"/>
<feGaussianBlur stdDeviation="2"/>
<feColorMatrix type="matrix" values="0 0 0 0 0 0 0 0 0 0 0 0 0 0 0 0 0 0 0.25 0"/>
<feBlend mode="normal" in2="BackgroundImageFix" result="effect1_dropShadow"/>
<feBlend mode="normal" in="SourceGraphic" in2="effect1_dropShadow" result="shape"/>
</filter>
<clipPath id="clip0">
<rect width="814" height="514" fill="white"/>
</clipPath>
</defs>
</svg>
