<svg width="50" height="50" viewBox="0 0 50 50" fill="none" xmlns="http://www.w3.org/2000/svg">
<path d="M24.8867 29.9319C27.6432 29.991 29.873 27.7883 29.9312 25.1092C29.991 22.348 27.7628 20.0656 25 20.0671C22.2994 20.0656 20.104 22.2386 20.0664 24.9264C20.0274 27.6877 22.2371 29.8751 24.8867 29.9319Z" fill="#2F2E41"/>
<path d="M32.5142 25.9042C32.3857 26.9918 32.0346 28.0038 31.4639 28.9391C30.8933 29.8745 30.1519 30.6509 29.2461 31.2678C26.8966 32.8687 23.8026 33.0091 21.3087 31.6094C20.0486 30.9032 19.059 29.9175 18.3679 28.6462C17.3392 26.7525 17.1749 24.7637 17.7782 22.7C17.0056 22.7 16.2379 22.7 15.4598 22.7V22.7654C15.4598 26.3686 15.459 29.9718 15.4598 33.575C15.4598 34.0929 15.9084 34.539 16.427 34.539C22.1411 34.5398 27.8544 34.5398 33.5684 34.539C34.0919 34.539 34.538 34.0945 34.538 33.5718C34.5388 29.9734 34.538 26.3734 34.538 22.7758V22.7008H32.2141C32.5421 23.7495 32.6427 24.8165 32.5142 25.9042Z" fill="#2F2E41"/>
<path d="M30.3246 18.4226C30.4627 18.8279 30.8346 19.077 31.2895 19.0794C31.659 19.0794 32.0292 19.0786 32.3988 19.0786V19.0738C32.7993 19.0738 33.2008 19.0818 33.6023 19.0723C34.1178 19.0595 34.5375 18.6174 34.5375 18.1011C34.5375 17.3325 34.5375 16.5633 34.5375 15.7947C34.5375 15.2433 34.101 14.8052 33.5511 14.8043C32.7842 14.8043 32.0172 14.8035 31.2503 14.8043C30.7012 14.8051 30.2639 15.2448 30.2639 15.7963C30.2631 16.5584 30.2607 17.3206 30.2663 18.0827C30.2671 18.1968 30.2887 18.3149 30.3246 18.4226Z" fill="url(#paint0_linear)"/>
<path d="M25.0002 0.693115C11.5759 0.693115 0.693359 11.5756 0.693359 25C0.693359 38.4243 11.5759 49.3068 25.0002 49.3068C38.4245 49.3068 49.307 38.4243 49.307 25C49.307 11.5756 38.4245 0.693115 25.0002 0.693115ZM37.1741 34.7427C37.1565 34.8512 37.1406 34.9598 37.1206 35.0691C36.9259 36.0691 36.1135 36.8982 35.1191 37.1097C34.9939 37.1369 34.867 37.1552 34.74 37.1759H15.2604C15.2085 37.1688 15.1559 37.1584 15.1047 37.152C14.0329 37.0139 13.1327 36.1959 12.894 35.141C12.8661 35.018 12.8485 34.8927 12.8262 34.7699V15.2351C12.8334 15.1896 12.843 15.1441 12.8493 15.0987C13.0033 14.0053 13.8014 13.1371 14.8804 12.8913C14.9961 12.8649 15.115 12.849 15.2323 12.8274H34.7679C34.8134 12.8354 34.8572 12.8458 34.9035 12.8513C36.008 13.003 36.9082 13.8497 37.1221 14.9406C37.142 15.0467 37.1572 15.1544 37.1739 15.2606V34.7427H37.1741Z" fill="#2F2E41"/>
<defs>
<linearGradient id="paint0_linear" x1="11.9392" y1="-3.52064" x2="52.0061" y2="36.5463" gradientUnits="userSpaceOnUse">
<stop stop-color="#2F2E41"/>
<stop offset="0.4075"/>
<stop offset="0.7829"/>
<stop offset="1" stop-color="white"/>
</linearGradient>
</defs>
</svg>
