<svg width="50" height="50" viewBox="0 0 50 50" fill="none" xmlns="http://www.w3.org/2000/svg">
<path d="M25.7775 21.2407V21.1895C25.7678 21.2061 25.7534 21.2246 25.7437 21.2407H25.7775Z" fill="#2F2E41"/>
<path d="M24.3068 1C10.8825 1 0 11.8825 0 25.3068C0 38.7312 10.8825 49.6137 24.3068 49.6137C37.7311 49.6137 48.6137 38.7312 48.6137 25.3068C48.6137 11.8825 37.7311 1 24.3068 1ZM17.613 34.7602H12.3569V18.9484H17.613V34.7602ZM14.9859 16.7906H14.9505C13.187 16.7906 12.0447 15.5753 12.0447 14.057C12.0447 12.5057 13.2217 11.3257 15.0198 11.3257C16.8187 11.3257 17.9248 12.5057 17.9595 14.057C17.9596 15.5753 16.8188 16.7906 14.9859 16.7906ZM36.5689 34.7604H31.3129V26.3008C31.3129 24.1759 30.552 22.7253 28.6497 22.7253C27.1971 22.7253 26.3328 23.7026 25.952 24.6479C25.8134 24.9861 25.7779 25.4561 25.7779 25.9296V34.7602H20.5211C20.5211 34.7602 20.5912 20.4322 20.5211 18.9484H25.7776V21.1895C26.4758 20.1138 27.7236 18.5768 30.5157 18.5768C33.9757 18.5768 36.5687 20.8363 36.569 25.6931V34.7604H36.5689Z" fill="#2F2E41"/>
</svg>
