<svg width="50" height="50" viewBox="0 0 50 50" fill="none" xmlns="http://www.w3.org/2000/svg">
<path d="M25 50C38.8071 50 50 38.8071 50 25C50 11.1929 38.8071 0 25 0C11.1929 0 0 11.1929 0 25C0 38.8071 11.1929 50 25 50Z" fill="#2F2E41"/>
<g opacity="0.2">
<path opacity="0.2" d="M40.125 34.375C40.125 35.8246 38.9496 37 37.5 37H12.5C11.0504 37 9.875 35.8246 9.875 34.375V18.75C9.875 17.3004 11.0504 16.125 12.5 16.125H37.5C38.9496 16.125 40.125 17.3004 40.125 18.75V34.375Z" fill="#231F20" stroke="black"/>
</g>
<path d="M40.125 32.8125C40.125 34.2621 38.9496 35.4375 37.5 35.4375H12.5C11.0504 35.4375 9.875 34.2621 9.875 32.8125V17.1875C9.875 15.7379 11.0504 14.5625 12.5 14.5625H37.5C38.9496 14.5625 40.125 15.7379 40.125 17.1875V32.8125Z" fill="white" stroke="black"/>
<g opacity="0.2">
<g opacity="0.2">
<path opacity="0.2" d="M27.3818 23.9172L27.4044 23.9422L27.4301 23.9639L39.4548 34.1311C39.4929 34.1742 39.529 34.217 39.5635 34.2596C39.0732 34.9907 38.3218 35.4376 37.4998 35.4376H12.4998C11.6777 35.4376 10.9262 34.9906 10.4359 34.2593C10.4703 34.2168 10.5063 34.1743 10.5443 34.1315L22.5703 23.964L22.596 23.9422L22.6185 23.9172C23.9341 22.4605 26.0663 22.4605 27.3818 23.9172Z" fill="#231F20" stroke="black"/>
</g>
</g>
<path d="M27.4029 25.357L27.4267 25.3803L27.4533 25.4003L39.4776 34.4009C39.4964 34.4198 39.5148 34.4385 39.5328 34.4573C39.0515 35.0555 38.3214 35.4375 37.4998 35.4375H12.4998C11.6781 35.4375 10.948 35.0554 10.4667 34.4567C10.4847 34.4378 10.5031 34.419 10.522 34.4002L22.5471 25.4003L22.5737 25.3803L22.5975 25.357C23.9171 24.0633 26.0833 24.0633 27.4029 25.357Z" fill="white" stroke="black"/>
<g opacity="0.2">
<g opacity="0.2">
<path opacity="0.2" d="M27.4301 26.0362L27.4044 26.0579L27.3818 26.0829C26.0663 27.5396 23.9341 27.5396 22.6185 26.0829L22.5972 26.0592L22.573 26.0385L10.4849 15.6698C10.9755 14.9807 11.7046 14.5625 12.4998 14.5625H37.4998C38.3218 14.5625 39.0732 15.0094 39.5635 15.7405C39.529 15.7831 39.4929 15.8259 39.4548 15.869L27.4301 26.0362Z" fill="#231F20" stroke="black"/>
</g>
</g>
<path d="M22.5967 24.643L22.5729 24.6197L22.5463 24.5997L10.5221 15.5991C10.5032 15.5802 10.4848 15.5615 10.4668 15.5427C10.9481 14.9445 11.6782 14.5625 12.4998 14.5625H37.4998C38.3215 14.5625 39.0516 14.9446 39.5329 15.5433C39.5149 15.5622 39.4965 15.581 39.4776 15.5998L27.4525 24.5997L27.4259 24.6197L27.4021 24.643C26.0825 25.9367 23.9163 25.9367 22.5967 24.643Z" fill="white" stroke="black"/>
</svg>
